<svg data-v-423bf9ae="" xmlns="http://www.w3.org/2000/svg" viewBox="0 0 388.88464831599657 60" class="font"><!----><!----><!----><g data-v-423bf9ae="" id="f96317b7-ecb5-46de-a04b-5efb7f67341a" fill="black" transform="matrix(5.71973320392212,0,0,5.71973320392212,-3.946617188135093,-14.41372708795133)"><path d="M5.01 13.01L5.01 13.01Q3.82 13.01 2.83 12.44L2.83 12.44L2.83 12.44Q1.85 11.87 1.27 10.82L1.27 10.82L1.27 10.82Q0.69 9.77 0.69 8.37L0.69 8.37L0.69 8.37Q0.69 6.96 1.25 5.88L1.25 5.88L1.25 5.88Q1.81 4.80 2.84 4.21L2.84 4.21L2.84 4.21Q3.88 3.61 5.26 3.61L5.26 3.61L5.26 3.61Q6.47 3.61 7.41 4.10L7.41 4.10L7.41 4.10Q8.34 4.58 8.34 5.59L8.34 5.59L8.34 5.59Q8.36 6.22 7.97 6.66L7.97 6.66L7.97 6.66Q7.57 7.10 6.92 7.10L6.92 7.10L6.92 7.10Q6.66 7.10 6.49 7.01L6.49 7.01L6.49 7.01Q6.31 6.92 6.23 6.79L6.23 6.79L6.23 6.79Q6.15 6.66 6.16 6.59L6.16 6.59L6.16 6.59Q6.16 6.57 6.36 6.44L6.36 6.44L6.36 6.44Q6.55 6.31 6.71 6.09L6.71 6.09L6.71 6.09Q6.86 5.87 6.86 5.54L6.86 5.54L6.86 5.54Q6.86 4.91 6.43 4.54L6.43 4.54L6.43 4.54Q6.01 4.17 5.25 4.17L5.25 4.17L5.25 4.17Q4.40 4.17 3.73 4.66L3.73 4.66L3.73 4.66Q3.07 5.14 2.69 6.07L2.69 6.07L2.69 6.07Q2.32 7.00 2.32 8.29L2.32 8.29L2.32 8.29Q2.32 9.41 2.72 10.33L2.72 10.33L2.72 10.33Q3.12 11.24 3.85 11.78L3.85 11.78L3.85 11.78Q4.58 12.32 5.52 12.32L5.52 12.32L5.52 12.32Q6.27 12.32 6.81 12.01L6.81 12.01L6.81 12.01Q7.35 11.69 7.78 10.99L7.78 10.99L7.78 10.99Q7.85 10.86 7.98 10.86L7.98 10.86L7.98 10.86Q8.09 10.86 8.23 10.95L8.23 10.95L8.23 10.95Q8.46 11.10 8.46 11.26L8.46 11.26L8.46 11.26Q8.46 11.34 8.40 11.40L8.40 11.40L8.40 11.40Q7.87 12.07 7.40 12.41L7.40 12.41L7.40 12.41Q6.93 12.75 6.38 12.88L6.38 12.88L6.38 12.88Q5.84 13.01 5.01 13.01L5.01 13.01ZM11.30 12.89L11.30 12.89Q10.46 12.89 9.94 12.42L9.94 12.42L9.94 12.42Q9.42 11.94 9.42 11.23L9.42 11.23L9.42 11.23Q9.42 10.35 10.01 9.91L10.01 9.91L10.01 9.91Q10.60 9.46 11.41 9.33L11.41 9.33L11.41 9.33Q12.22 9.20 13.51 9.13L13.51 9.13L13.51 8.02L13.51 8.02Q13.51 7.34 13.17 6.98L13.17 6.98L13.17 6.98Q12.82 6.62 12.07 6.62L12.07 6.62L12.07 6.62Q11.63 6.62 11.31 6.89L11.31 6.89L11.31 6.89Q10.99 7.15 10.99 7.60L10.99 7.60L10.99 7.60Q10.99 7.83 11.09 7.97L11.09 7.97L11.09 7.97Q11.20 8.12 11.32 8.22L11.32 8.22L11.32 8.22Q11.44 8.32 11.44 8.33L11.44 8.33L11.44 8.33Q11.44 8.41 11.26 8.55L11.26 8.55L11.26 8.55Q11.09 8.68 10.84 8.68L10.84 8.68L10.84 8.68Q10.42 8.68 10.17 8.37L10.17 8.37L10.17 8.37Q9.93 8.06 9.93 7.64L9.93 7.64L9.93 7.64Q9.93 6.92 10.58 6.57L10.58 6.57L10.58 6.57Q11.23 6.22 12.15 6.22L12.15 6.22L12.15 6.22Q13.30 6.22 14.02 6.65L14.02 6.65L14.02 6.65Q14.74 7.08 14.74 8.26L14.74 8.26L14.74 11.52L14.74 11.52Q14.76 11.82 14.92 12.08L14.92 12.08L14.92 12.08Q15.09 12.35 15.47 12.35L15.47 12.35L15.47 12.35Q15.58 12.35 15.63 12.39L15.63 12.39L15.63 12.39Q15.68 12.43 15.68 12.57L15.68 12.57L15.68 12.57Q15.68 12.74 15.42 12.82L15.42 12.82L15.42 12.82Q15.16 12.89 14.91 12.89L14.91 12.89L14.91 12.89Q14.38 12.89 13.97 12.59L13.97 12.59L13.97 12.59Q13.57 12.28 13.51 11.76L13.51 11.76L13.51 11.76Q13.22 12.31 12.61 12.60L12.61 12.60L12.61 12.60Q12.00 12.89 11.30 12.89L11.30 12.89ZM11.75 12.14L11.75 12.14Q12.22 12.14 12.63 11.90L12.63 11.90L12.63 11.90Q13.03 11.66 13.27 11.25L13.27 11.25L13.27 11.25Q13.51 10.84 13.51 10.33L13.51 10.33L13.51 9.53L13.51 9.53Q12.04 9.65 11.44 10.01L11.44 10.01L11.44 10.01Q10.84 10.37 10.84 11.19L10.84 11.19L10.84 11.19Q10.84 12.14 11.75 12.14L11.75 12.14ZM16.77 12.77L16.77 12.77Q16.66 12.77 16.60 12.68L16.60 12.68L16.60 12.68Q16.55 12.60 16.55 12.49L16.55 12.49L16.55 12.49Q16.56 12.31 16.63 12.27L16.63 12.27L16.63 12.27Q16.69 12.24 16.87 12.24L16.87 12.24L16.87 12.24Q17.23 12.24 17.39 12.11L17.39 12.11L17.39 12.11Q17.54 11.98 17.56 11.82L17.56 11.82L17.56 11.82Q17.58 11.66 17.58 11.28L17.58 11.28L17.58 6.93L16.65 6.93L16.65 6.93Q16.53 6.93 16.47 6.85L16.47 6.85L16.47 6.85Q16.41 6.76 16.41 6.65L16.41 6.65L16.41 6.65Q16.42 6.45 16.49 6.42L16.49 6.42L16.49 6.42Q16.56 6.38 16.74 6.38L16.74 6.38L17.58 6.38L17.58 5.80L17.58 5.80Q17.58 4.35 18.26 3.45L18.26 3.45L18.26 3.45Q18.94 2.55 20.17 2.52L20.17 2.52L20.17 2.52Q20.86 2.52 21.41 2.91L21.41 2.91L21.41 2.91Q21.95 3.29 21.95 3.89L21.95 3.89L21.95 3.89Q21.95 4.31 21.71 4.63L21.71 4.63L21.71 4.63Q21.46 4.94 21.03 4.94L21.03 4.94L21.03 4.94Q20.78 4.94 20.59 4.80L20.59 4.80L20.59 4.80Q20.41 4.66 20.41 4.58L20.41 4.58L20.41 4.58Q20.41 4.56 20.55 4.44L20.55 4.44L20.55 4.44Q20.68 4.31 20.78 4.14L20.78 4.14L20.78 4.14Q20.89 3.96 20.89 3.72L20.89 3.72L20.89 3.72Q20.89 3.42 20.66 3.20L20.66 3.20L20.66 3.20Q20.43 2.98 20.08 2.98L20.08 2.98L20.08 2.98Q19.52 2.98 19.25 3.42L19.25 3.42L19.25 3.42Q18.98 3.85 18.93 4.36L18.93 4.36L18.93 4.36Q18.87 4.87 18.87 5.54L18.87 5.54L18.87 6.38L20.24 6.38L20.33 6.38L20.33 6.38Q20.45 6.38 20.52 6.43L20.52 6.43L20.52 6.43Q20.58 6.48 20.59 6.65L20.59 6.65L20.59 6.65Q20.59 6.76 20.52 6.85L20.52 6.85L20.52 6.85Q20.45 6.93 20.36 6.93L20.36 6.93L18.87 6.93L18.87 11.28L18.87 11.28Q18.87 11.72 18.94 11.91L18.94 11.91L18.94 11.91Q19.01 12.10 19.21 12.17L19.21 12.17L19.21 12.17Q19.40 12.24 19.87 12.24L19.87 12.24L19.95 12.24L19.95 12.24Q20.08 12.24 20.13 12.28L20.13 12.28L20.13 12.28Q20.17 12.32 20.19 12.49L20.19 12.49L20.19 12.49Q20.19 12.60 20.13 12.68L20.13 12.68L20.13 12.68Q20.08 12.77 19.98 12.77L19.98 12.77L19.98 12.77Q19.17 12.73 18.23 12.73L18.23 12.73L18.23 12.73Q17.57 12.73 16.77 12.77L16.77 12.77ZM24.61 12.89L24.61 12.89Q23.56 12.89 22.83 12.45L22.83 12.45L22.83 12.45Q22.09 12.00 21.71 11.23L21.71 11.23L21.71 11.23Q21.34 10.46 21.34 9.52L21.34 9.52L21.34 9.52Q21.34 8.69 21.72 7.93L21.72 7.93L21.72 7.93Q22.11 7.17 22.82 6.69L22.82 6.69L22.82 6.69Q23.53 6.22 24.46 6.22L24.46 6.22L24.46 6.22Q25.70 6.22 26.38 6.85L26.38 6.85L26.38 6.85Q27.05 7.49 27.15 8.57L27.15 8.57L27.15 8.57Q27.15 9.03 26.89 9.20L26.89 9.20L26.89 9.20Q26.64 9.37 26.17 9.37L26.17 9.37L22.76 9.37L22.76 9.37Q22.76 10.67 23.30 11.43L23.30 11.43L23.30 11.43Q23.84 12.19 24.98 12.19L24.98 12.19L24.98 12.19Q25.58 12.19 26.00 11.94L26.00 11.94L26.00 11.94Q26.42 11.68 26.80 11.06L26.80 11.06L26.80 11.06Q26.87 10.99 26.94 10.99L26.94 10.99L26.94 10.99Q27.03 10.99 27.10 11.05L27.10 11.05L27.10 11.05Q27.24 11.13 27.24 11.30L27.24 11.30L27.24 11.30Q27.24 11.38 27.22 11.42L27.22 11.42L27.22 11.42Q26.78 12.12 26.12 12.51L26.12 12.51L26.12 12.51Q25.45 12.89 24.61 12.89L24.61 12.89ZM22.76 8.83L25.05 8.83L25.05 8.83Q25.76 8.83 25.80 8.25L25.80 8.25L25.80 8.25Q25.80 7.60 25.45 7.15L25.45 7.15L25.45 7.15Q25.10 6.71 24.46 6.71L24.46 6.71L24.46 6.71Q23.74 6.71 23.28 7.27L23.28 7.27L23.28 7.27Q22.82 7.84 22.76 8.83L22.76 8.83ZM35.94 13.01L35.94 13.01Q34.72 13.01 33.73 12.50L33.73 12.50L33.73 12.50Q32.75 11.98 32.17 10.94L32.17 10.94L32.17 10.94Q31.60 9.90 31.60 8.37L31.60 8.37L31.60 8.37Q31.60 6.96 32.22 5.88L32.22 5.88L32.22 5.88Q32.84 4.80 33.95 4.21L33.95 4.21L33.95 4.21Q35.06 3.61 36.48 3.61L36.48 3.61L36.48 3.61Q37.18 3.61 37.87 3.82L37.87 3.82L37.87 3.82Q38.56 4.03 39.00 4.48L39.00 4.48L39.00 4.48Q39.45 4.93 39.45 5.59L39.45 5.59L39.45 5.59Q39.45 6.20 39.09 6.65L39.09 6.65L39.09 6.65Q38.72 7.10 38.12 7.10L38.12 7.10L38.12 7.10Q37.83 7.10 37.55 6.96L37.55 6.96L37.55 6.96Q37.28 6.82 37.27 6.59L37.27 6.59L37.27 6.59Q37.27 6.58 37.46 6.44L37.46 6.44L37.46 6.44Q37.65 6.30 37.81 6.06L37.81 6.06L37.81 6.06Q37.97 5.82 37.97 5.49L37.97 5.49L37.97 5.49Q37.97 4.90 37.51 4.54L37.51 4.54L37.51 4.54Q37.04 4.17 36.32 4.17L36.32 4.17L36.32 4.17Q35.45 4.17 34.75 4.66L34.75 4.66L34.75 4.66Q34.05 5.14 33.64 6.07L33.64 6.07L33.64 6.07Q33.24 7.00 33.24 8.29L33.24 8.29L33.24 8.29Q33.24 9.53 33.63 10.44L33.63 10.44L33.63 10.44Q34.03 11.35 34.75 11.84L34.75 11.84L34.75 11.84Q35.48 12.32 36.43 12.32L36.43 12.32L36.43 12.32Q36.88 12.32 37.21 12.27L37.21 12.27L37.21 12.27Q37.55 12.22 37.94 12.10L37.94 12.10L37.94 10.67L37.94 10.67Q37.94 10.18 37.91 9.98L37.91 9.98L37.91 9.98Q37.87 9.79 37.68 9.69L37.68 9.69L37.68 9.69Q37.49 9.59 37.04 9.59L37.04 9.59L37.04 9.59Q36.89 9.59 36.82 9.54L36.82 9.54L36.82 9.54Q36.75 9.49 36.74 9.30L36.74 9.30L36.74 9.30Q36.74 9.17 36.81 9.08L36.81 9.08L36.81 9.08Q36.89 8.99 37.03 8.99L37.03 8.99L37.03 8.99Q37.91 9.03 38.57 9.03L38.57 9.03L38.57 9.03Q39.20 9.03 40.08 8.99L40.08 8.99L40.08 8.99Q40.21 8.99 40.28 9.08L40.28 9.08L40.28 9.08Q40.35 9.17 40.35 9.30L40.35 9.30L40.35 9.30Q40.33 9.49 40.26 9.54L40.26 9.54L40.26 9.54Q40.19 9.59 40.04 9.59L40.04 9.59L40.04 9.59Q39.62 9.59 39.44 9.70L39.44 9.70L39.44 9.70Q39.26 9.81 39.21 10.02L39.21 10.02L39.21 10.02Q39.17 10.22 39.17 10.67L39.17 10.67L39.17 12.32L39.17 12.32Q38.35 12.71 37.66 12.86L37.66 12.86L37.66 12.86Q36.97 13.01 35.94 13.01L35.94 13.01ZM41.15 12.77L41.15 12.77Q41.03 12.77 40.98 12.68L40.98 12.68L40.98 12.68Q40.92 12.60 40.92 12.49L40.92 12.49L40.92 12.49Q40.94 12.31 41.00 12.27L41.00 12.27L41.00 12.27Q41.06 12.24 41.24 12.24L41.24 12.24L41.24 12.24Q41.61 12.24 41.76 12.11L41.76 12.11L41.76 12.11Q41.92 11.98 41.94 11.82L41.94 11.82L41.94 11.82Q41.97 11.65 41.97 11.28L41.97 11.28L41.97 4.45L41.97 4.45Q41.97 4.09 41.95 3.92L41.95 3.92L41.95 3.92Q41.93 3.75 41.78 3.63L41.78 3.63L41.78 3.63Q41.62 3.50 41.26 3.50L41.26 3.50L41.26 3.50Q41.09 3.50 41.01 3.45L41.01 3.45L41.01 3.45Q40.92 3.40 40.92 3.22L40.92 3.22L40.92 3.22Q40.92 3.14 40.98 3.06L40.98 3.06L40.98 3.06Q41.03 2.98 41.15 2.97L41.15 2.97L41.15 2.97Q41.85 2.87 42.20 2.75L42.20 2.75L42.20 2.75Q42.56 2.63 42.62 2.62L42.62 2.62L42.62 2.62Q42.88 2.52 42.98 2.52L42.98 2.52L42.98 2.52Q43.25 2.52 43.25 2.79L43.25 2.79L43.25 7.29L43.27 7.29L43.27 7.29Q43.68 6.92 43.93 6.71L43.93 6.71L43.93 6.71Q44.18 6.51 44.58 6.36L44.58 6.36L44.58 6.36Q44.98 6.22 45.53 6.22L45.53 6.22L45.53 6.22Q46.48 6.22 47.04 6.79L47.04 6.79L47.04 6.79Q47.60 7.36 47.60 8.30L47.60 8.30L47.60 11.28L47.60 11.28Q47.60 11.65 47.62 11.82L47.62 11.82L47.62 11.82Q47.64 11.98 47.80 12.11L47.80 12.11L47.80 12.11Q47.95 12.24 48.31 12.24L48.31 12.24L48.40 12.24L48.40 12.24Q48.52 12.24 48.57 12.28L48.57 12.28L48.57 12.28Q48.62 12.32 48.64 12.49L48.64 12.49L48.64 12.49Q48.64 12.60 48.58 12.68L48.58 12.68L48.58 12.68Q48.52 12.77 48.43 12.77L48.43 12.77L48.43 12.77Q47.60 12.73 46.96 12.73L46.96 12.73L46.96 12.73Q46.30 12.73 45.50 12.77L45.50 12.77L45.50 12.77Q45.39 12.77 45.33 12.68L45.33 12.68L45.33 12.68Q45.28 12.60 45.28 12.49L45.28 12.49L45.28 12.49Q45.29 12.31 45.35 12.27L45.35 12.27L45.35 12.27Q45.42 12.24 45.60 12.24L45.60 12.24L45.60 12.24Q45.96 12.24 46.12 12.11L46.12 12.11L46.12 12.11Q46.27 11.98 46.29 11.82L46.29 11.82L46.29 11.82Q46.31 11.66 46.31 11.28L46.31 11.28L46.31 8.32L46.31 8.32Q46.31 7.67 45.91 7.33L45.91 7.33L45.91 7.33Q45.51 6.99 44.98 6.99L44.98 6.99L44.98 6.99Q44.34 6.99 43.87 7.31L43.87 7.31L43.87 7.31Q43.40 7.63 43.25 7.95L43.25 7.95L43.25 11.28L43.25 11.28Q43.25 11.65 43.27 11.82L43.27 11.82L43.27 11.82Q43.29 11.98 43.44 12.11L43.44 12.11L43.44 12.11Q43.60 12.24 43.96 12.24L43.96 12.24L44.04 12.24L44.04 12.24Q44.17 12.24 44.22 12.28L44.22 12.28L44.22 12.28Q44.27 12.32 44.28 12.49L44.28 12.49L44.28 12.49Q44.28 12.60 44.23 12.68L44.23 12.68L44.23 12.68Q44.17 12.77 44.07 12.77L44.07 12.77L44.07 12.77Q43.26 12.73 42.60 12.73L42.60 12.73L42.60 12.73Q41.97 12.73 41.15 12.77L41.15 12.77ZM49.53 12.77L49.53 12.77Q49.43 12.77 49.37 12.68L49.37 12.68L49.37 12.68Q49.31 12.60 49.31 12.49L49.31 12.49L49.31 12.49Q49.32 12.31 49.39 12.27L49.39 12.27L49.39 12.27Q49.46 12.24 49.64 12.24L49.64 12.24L49.64 12.24Q50.01 12.24 50.16 12.11L50.16 12.11L50.16 12.11Q50.32 11.98 50.34 11.82L50.34 11.82L50.34 11.82Q50.36 11.65 50.36 11.28L50.36 11.28L50.36 8.08L50.36 8.08Q50.36 7.71 50.34 7.55L50.34 7.55L50.34 7.55Q50.32 7.38 50.16 7.25L50.16 7.25L50.16 7.25Q50.01 7.13 49.64 7.13L49.64 7.13L49.64 7.13Q49.48 7.13 49.39 7.08L49.39 7.08L49.39 7.08Q49.31 7.03 49.31 6.85L49.31 6.85L49.31 6.85Q49.31 6.76 49.36 6.69L49.36 6.69L49.36 6.69Q49.42 6.61 49.53 6.59L49.53 6.59L49.53 6.59Q50.41 6.47 51.04 6.23L51.04 6.23L51.04 6.23Q51.24 6.16 51.37 6.15L51.37 6.15L51.41 6.15L51.41 6.15Q51.63 6.15 51.63 6.41L51.63 6.41L51.63 11.28L51.63 11.28Q51.63 11.65 51.66 11.82L51.66 11.82L51.66 11.82Q51.69 11.98 51.84 12.11L51.84 12.11L51.84 12.11Q52.00 12.24 52.36 12.24L52.36 12.24L52.44 12.24L52.44 12.24Q52.56 12.24 52.61 12.28L52.61 12.28L52.61 12.28Q52.67 12.32 52.68 12.49L52.68 12.49L52.68 12.49Q52.68 12.60 52.63 12.68L52.63 12.68L52.63 12.68Q52.57 12.77 52.46 12.77L52.46 12.77L52.46 12.77Q51.65 12.73 50.99 12.73L50.99 12.73L50.99 12.73Q50.36 12.73 49.53 12.77L49.53 12.77ZM50.92 4.59L50.92 4.59Q50.53 4.59 50.26 4.35L50.26 4.35L50.26 4.35Q49.99 4.10 49.99 3.74L49.99 3.74L49.99 3.74Q49.99 3.42 50.32 3.16L50.32 3.16L50.32 3.16Q50.64 2.91 51.04 2.91L51.04 2.91L51.04 2.91Q51.39 2.91 51.62 3.16L51.62 3.16L51.62 3.16Q51.84 3.40 51.84 3.78L51.84 3.78L51.84 3.78Q51.84 4.12 51.58 4.35L51.58 4.35L51.58 4.35Q51.31 4.59 50.92 4.59L50.92 4.59ZM54.35 12.92L54.35 12.92Q54.22 12.92 54.15 12.85L54.15 12.85L54.15 12.85Q54.08 12.77 54.08 12.64L54.08 12.64L54.08 4.47L54.08 4.47Q54.08 4.10 54.06 3.93L54.06 3.93L54.06 3.93Q54.04 3.77 53.89 3.64L53.89 3.64L53.89 3.64Q53.73 3.51 53.37 3.51L53.37 3.51L53.37 3.51Q53.20 3.51 53.12 3.46L53.12 3.46L53.12 3.46Q53.03 3.42 53.03 3.23L53.03 3.23L53.03 3.23Q53.03 3.15 53.09 3.07L53.09 3.07L53.09 3.07Q53.14 3.00 53.26 2.98L53.26 2.98L53.26 2.98Q54.14 2.86 54.77 2.62L54.77 2.62L54.77 2.62Q54.96 2.55 55.09 2.53L55.09 2.53L55.13 2.53L55.13 2.53Q55.36 2.53 55.36 2.80L55.36 2.80L55.36 7.03L55.40 7.03L55.40 7.03Q55.80 6.62 56.32 6.42L56.32 6.42L56.32 6.42Q56.83 6.22 57.33 6.22L57.33 6.22L57.33 6.22Q58.16 6.22 58.83 6.64L58.83 6.64L58.83 6.64Q59.50 7.06 59.89 7.81L59.89 7.81L59.89 7.81Q60.27 8.55 60.27 9.51L60.27 9.51L60.27 9.51Q60.27 10.44 59.83 11.22L59.83 11.22L59.83 11.22Q59.39 12.00 58.65 12.45L58.65 12.45L58.65 12.45Q57.90 12.89 57.06 12.89L57.06 12.89L57.06 12.89Q55.82 12.89 54.91 12.21L54.91 12.21L54.84 12.21L54.84 12.21Q54.78 12.32 54.71 12.52L54.71 12.52L54.71 12.52Q54.64 12.71 54.56 12.82L54.56 12.82L54.56 12.82Q54.47 12.92 54.35 12.92L54.35 12.92ZM56.94 12.42L56.94 12.42Q57.79 12.42 58.32 11.64L58.32 11.64L58.32 11.64Q58.84 10.86 58.84 9.56L58.84 9.56L58.84 9.56Q58.84 8.47 58.34 7.69L58.34 7.69L58.34 7.69Q57.83 6.92 56.84 6.92L56.84 6.92L56.84 6.92Q55.96 6.92 55.36 7.56L55.36 7.56L55.36 11.26L55.36 11.26Q55.40 11.48 55.60 11.75L55.60 11.75L55.60 11.75Q55.80 12.03 56.15 12.22L56.15 12.22L56.15 12.22Q56.49 12.42 56.94 12.42L56.94 12.42ZM61.39 12.77L61.39 12.77Q61.29 12.77 61.23 12.68L61.23 12.68L61.23 12.68Q61.17 12.60 61.17 12.49L61.17 12.49L61.17 12.49Q61.18 12.31 61.24 12.27L61.24 12.27L61.24 12.27Q61.31 12.24 61.49 12.24L61.49 12.24L61.49 12.24Q61.85 12.24 62.01 12.11L62.01 12.11L62.01 12.11Q62.16 11.98 62.19 11.82L62.19 11.82L62.19 11.82Q62.22 11.65 62.22 11.28L62.22 11.28L62.22 4.45L62.22 4.45Q62.22 4.09 62.20 3.92L62.20 3.92L62.20 3.92Q62.17 3.75 62.02 3.63L62.02 3.63L62.02 3.63Q61.87 3.50 61.50 3.50L61.50 3.50L61.50 3.50Q61.33 3.50 61.25 3.45L61.25 3.45L61.25 3.45Q61.17 3.40 61.17 3.22L61.17 3.22L61.17 3.22Q61.17 3.14 61.22 3.06L61.22 3.06L61.22 3.06Q61.28 2.98 61.39 2.97L61.39 2.97L61.39 2.97Q62.27 2.84 62.90 2.60L62.90 2.60L62.90 2.60Q63.10 2.53 63.22 2.52L63.22 2.52L63.27 2.52L63.27 2.52Q63.49 2.52 63.49 2.79L63.49 2.79L63.49 11.28L63.49 11.28Q63.49 11.65 63.52 11.82L63.52 11.82L63.52 11.82Q63.55 11.98 63.70 12.11L63.70 12.11L63.70 12.11Q63.85 12.24 64.22 12.24L64.22 12.24L64.30 12.24L64.30 12.24Q64.41 12.24 64.47 12.28L64.47 12.28L64.47 12.28Q64.53 12.32 64.54 12.49L64.54 12.49L64.54 12.49Q64.54 12.60 64.48 12.68L64.48 12.68L64.48 12.68Q64.43 12.77 64.32 12.77L64.32 12.77L64.32 12.77Q63.50 12.73 62.85 12.73L62.85 12.73L62.85 12.73Q62.22 12.73 61.39 12.77L61.39 12.77ZM65.53 12.77L65.53 12.77Q65.44 12.77 65.37 12.68L65.37 12.68L65.37 12.68Q65.31 12.60 65.31 12.49L65.31 12.49L65.31 12.49Q65.32 12.31 65.39 12.27L65.39 12.27L65.39 12.27Q65.46 12.24 65.65 12.24L65.65 12.24L65.65 12.24Q66.01 12.24 66.16 12.11L66.16 12.11L66.16 12.11Q66.32 11.98 66.34 11.82L66.34 11.82L66.34 11.82Q66.36 11.65 66.36 11.28L66.36 11.28L66.36 8.08L66.36 8.08Q66.36 7.71 66.34 7.55L66.34 7.55L66.34 7.55Q66.32 7.38 66.16 7.25L66.16 7.25L66.16 7.25Q66.01 7.13 65.65 7.13L65.65 7.13L65.65 7.13Q65.48 7.13 65.39 7.08L65.39 7.08L65.39 7.08Q65.31 7.03 65.31 6.85L65.31 6.85L65.31 6.85Q65.31 6.76 65.37 6.69L65.37 6.69L65.37 6.69Q65.42 6.61 65.53 6.59L65.53 6.59L65.53 6.59Q66.42 6.47 67.05 6.23L67.05 6.23L67.05 6.23Q67.24 6.16 67.37 6.15L67.37 6.15L67.41 6.15L67.41 6.15Q67.63 6.15 67.63 6.41L67.63 6.41L67.63 11.28L67.63 11.28Q67.63 11.65 67.66 11.82L67.66 11.82L67.66 11.82Q67.69 11.98 67.84 12.11L67.84 12.11L67.84 12.11Q68.00 12.24 68.36 12.24L68.36 12.24L68.45 12.24L68.45 12.24Q68.56 12.24 68.61 12.28L68.61 12.28L68.61 12.28Q68.67 12.32 68.68 12.49L68.68 12.49L68.68 12.49Q68.68 12.60 68.63 12.68L68.63 12.68L68.63 12.68Q68.57 12.77 68.46 12.77L68.46 12.77L68.46 12.77Q67.65 12.73 66.99 12.73L66.99 12.73L66.99 12.73Q66.36 12.73 65.53 12.77L65.53 12.77ZM66.92 4.59L66.92 4.59Q66.53 4.59 66.26 4.35L66.26 4.35L66.26 4.35Q66.00 4.10 66.00 3.74L66.00 3.74L66.00 3.74Q66.00 3.42 66.32 3.16L66.32 3.16L66.32 3.16Q66.64 2.91 67.05 2.91L67.05 2.91L67.05 2.91Q67.40 2.91 67.62 3.16L67.62 3.16L67.62 3.16Q67.84 3.40 67.84 3.78L67.84 3.78L67.84 3.78Q67.84 4.12 67.58 4.35L67.58 4.35L67.58 4.35Q67.31 4.59 66.92 4.59L66.92 4.59Z"></path></g><!----><!----></svg>